<svg width="117" height="146" viewBox="0 0 117 146" fill="none" xmlns="http://www.w3.org/2000/svg">
<path d="M88.065 66.665C106.925 71.4483 116.355 83.6117 116.355 103.155C116.355 115.592 112.187 125.773 103.85 133.7C95.5133 141.9 83.76 146 68.59 146H0.325001V0.0399975H68.18C81.5733 0.0399975 92.165 3.25166 99.955 9.675C107.882 15.9617 111.845 24.64 111.845 35.71C111.845 43.5 109.795 50.06 105.695 55.39C101.595 60.72 95.7183 64.4783 88.065 66.665ZM62.85 24.64H30.665V56.415H61.62C68.4533 56.415 73.5783 54.98 76.995 52.11C80.4117 49.24 82.12 45.2767 82.12 40.22C82.12 29.8333 75.6967 24.64 62.85 24.64ZM30.665 120.375H63.26C70.9133 120.375 76.7217 118.598 80.685 115.045C84.6483 111.492 86.63 106.572 86.63 100.285C86.63 94.135 84.7167 89.42 80.89 86.14C77.0633 82.7233 71.665 81.015 64.695 81.015H30.665V120.375Z" fill="black"/>
</svg>
