<svg width="130" height="155" viewBox="0 0 130 155" fill="none" xmlns="http://www.w3.org/2000/svg">
<path d="M68.03 154.715C48.2133 154.715 31.95 147.608 19.24 133.395C6.53 119.182 0.175 100.39 0.175 77.02C0.175 53.7867 6.59833 35.2683 19.445 21.465C32.4283 7.66166 48.76 0.759991 68.44 0.759991C86.2067 0.759991 100.557 5.40666 111.49 14.7C122.423 23.8567 128.573 36.43 129.94 52.42H101.035C99.805 44.3567 96.4567 38.1383 90.99 33.765C85.66 29.255 78.6217 27 69.875 27C57.575 27 47.94 31.51 40.97 40.53C34 49.55 30.515 61.7133 30.515 77.02C30.515 92.8733 34 105.447 40.97 114.74C47.94 123.897 57.575 128.475 69.875 128.475C78.7583 128.475 85.865 126.083 91.195 121.3C96.525 116.517 99.805 110.162 101.035 102.235H129.735C128.505 118.635 122.423 131.482 111.49 140.775C100.557 150.068 86.07 154.715 68.03 154.715Z" fill="black"/>
</svg>
