<svg width="132" height="154" viewBox="0 0 132 154" fill="none" xmlns="http://www.w3.org/2000/svg">
<path d="M70.9 71.075H131.785V150H112.105L107.39 134.215C98.9167 146.925 85.3183 153.28 66.595 153.28C47.5983 153.28 31.8133 146.31 19.24 132.37C6.53 118.703 0.175 100.253 0.175 77.02C0.175 53.7867 6.59833 35.3367 19.445 21.67C32.155 7.86666 48.4183 0.964988 68.235 0.964988C85.865 0.964988 100.078 5.26999 110.875 13.88C121.672 22.3533 128.3 34.4483 130.76 50.165L101.035 52.01C99.5317 44.0833 96.115 37.9333 90.785 33.56C85.455 29.1867 78.485 27 69.875 27C57.575 27 47.94 31.51 40.97 40.53C34 49.55 30.515 61.7133 30.515 77.02C30.515 92.7367 34 105.242 40.97 114.535C47.94 123.828 57.575 128.475 69.875 128.475C79.305 128.475 87.2317 125.742 93.655 120.275C100.078 114.672 104.042 106.745 105.545 96.495H70.9V71.075Z" fill="black"/>
</svg>
