<svg width="139" height="155" viewBox="0 0 139 155" fill="none" xmlns="http://www.w3.org/2000/svg">
<path d="M118.87 133.19C105.477 147.54 88.8717 154.715 69.055 154.715C49.2383 154.715 32.8383 147.54 19.855 133.19C6.735 118.977 0.175 100.185 0.175 76.815C0.175 53.855 6.66667 35.3367 19.65 21.26C32.6333 7.45666 49.1017 0.554993 69.055 0.554993C88.8717 0.554993 105.477 7.45666 118.87 21.26C132.127 35.0633 138.755 53.5817 138.755 76.815C138.755 100.185 132.127 118.977 118.87 133.19ZM40.97 114.33C47.8033 123.76 57.165 128.475 69.055 128.475C80.945 128.475 90.5117 123.76 97.755 114.33C104.862 105.037 108.415 92.5317 108.415 76.815C108.415 61.7817 104.862 49.6867 97.755 40.53C90.6483 31.3733 81.0817 26.795 69.055 26.795C57.0283 26.795 47.6667 31.3733 40.97 40.53C34 49.8233 30.515 61.9183 30.515 76.815C30.515 92.395 34 104.9 40.97 114.33Z" fill="black"/>
</svg>
