<svg width="115" height="146" viewBox="0 0 115 146" fill="none" xmlns="http://www.w3.org/2000/svg">
<path d="M86.63 75.89C93.8733 77.3933 99.0667 80.1267 102.21 84.09C105.353 87.9167 107.403 93.11 108.36 99.67L114.305 146H83.145L79.66 108.485C78.9767 101.788 76.9267 96.9367 73.51 93.93C70.23 90.9233 64.9 89.42 57.52 89.42H30.665V146H0.325001V0.0399975H68.385C84.5117 0.0399975 96.265 3.79833 103.645 11.315C110.888 18.9683 114.51 28.6033 114.51 40.22C114.51 59.08 105.217 70.97 86.63 75.89ZM30.665 25.46V64.82H59.775C68.1117 64.82 74.33 63.0433 78.43 59.49C82.6667 55.8 84.785 50.7433 84.785 44.32C84.785 38.4433 83.0083 33.865 79.455 30.585C76.0383 27.1683 70.845 25.46 63.875 25.46H30.665Z" fill="black"/>
</svg>
