<svg width="120" height="155" viewBox="0 0 120 155" fill="none" xmlns="http://www.w3.org/2000/svg">
<path d="M61.905 154.715C43.045 154.715 28.08 150.273 17.01 141.39C6.07667 132.507 0.405 120.275 -0.00499984 104.695H29.72C30.13 112.758 33.1367 118.977 38.74 123.35C44.3433 127.723 51.9967 129.91 61.7 129.91C70.0367 129.91 76.5967 128.338 81.38 125.195C86.1633 121.915 88.555 117.405 88.555 111.665C88.555 106.882 86.8467 103.26 83.43 100.8C80.0133 98.2033 74.2733 95.88 66.21 93.83L39.355 87.065C27.875 84.195 18.9917 79.275 12.705 72.305C6.555 65.335 3.48 56.725 3.48 46.475C3.48 33.765 8.195 22.9683 17.625 14.085C26.9183 5.20166 40.38 0.759991 58.01 0.759991C75.64 0.759991 89.7167 5.13332 100.24 13.88C110.763 22.7633 116.503 34.38 117.46 48.73H87.94C86.9833 41.4867 83.84 35.815 78.51 31.715C73.18 27.615 66.415 25.565 58.215 25.565C50.835 25.565 44.9583 27.205 40.585 30.485C36.2117 33.765 34.025 38.0017 34.025 43.195C34.025 51.2583 39.6967 56.725 51.04 59.595L80.15 66.77C106.663 73.1933 119.92 87.2017 119.92 108.795C119.92 123.008 114.727 134.215 104.34 142.415C94.09 150.615 79.945 154.715 61.905 154.715Z" fill="black"/>
</svg>
