<svg width="115" height="144" viewBox="0 0 115 144" fill="none" xmlns="http://www.w3.org/2000/svg">
<path d="M86.404 66.23C104.853 71.7513 114.078 83.6693 114.078 101.984C114.078 114.643 109.836 124.81 101.352 132.486C93.0027 140.162 81.4887 144 66.81 144H0.150001V0.175997H66.002C79.0647 0.175997 89.434 3.34066 97.11 9.67C104.786 15.8647 108.624 24.416 108.624 35.324C108.624 50.8107 101.217 61.1127 86.404 66.23ZM62.164 20.578H24.592V58.352H60.75C68.426 58.352 74.2167 56.6687 78.122 53.302C82.162 49.9353 84.182 45.1547 84.182 38.96C84.182 26.7053 76.8427 20.578 62.164 20.578ZM24.592 123.194H63.578C72.062 123.194 78.526 121.241 82.97 117.336C87.5487 113.431 89.838 107.842 89.838 100.57C89.838 85.8913 81.2867 78.552 64.184 78.552H24.592V123.194Z" fill="black"/>
</svg>
