<svg width="128" height="152" viewBox="0 0 128 152" fill="none" xmlns="http://www.w3.org/2000/svg">
<path d="M66.952 151.04C47.2907 151.04 31.4 144.037 19.28 130.032C7.02533 116.161 0.898 97.8467 0.898 75.088C0.898 52.464 7.02533 34.3513 19.28 20.75C31.4 7.01399 47.2907 0.145988 66.952 0.145988C83.2467 0.145988 96.9153 4.52265 107.958 13.276C118.731 22.0293 125.061 33.88 126.946 48.828H103.11C101.225 40.2093 97.252 33.5433 91.192 28.83C85.132 23.982 77.456 21.558 68.164 21.558C54.832 21.558 44.3953 26.3387 36.854 35.9C29.3127 45.4613 25.542 58.524 25.542 75.088C25.542 91.7867 29.3127 105.051 36.854 114.882C44.53 124.713 54.9667 129.628 68.164 129.628C78.264 129.628 86.4113 126.8 92.606 121.144C98.8007 115.488 102.639 107.543 104.12 97.308H127.754C126.003 114.141 119.741 127.339 108.968 136.9C98.1947 146.327 84.1893 151.04 66.952 151.04Z" fill="black"/>
</svg>
