<svg width="119" height="144" viewBox="0 0 119 144" fill="none" xmlns="http://www.w3.org/2000/svg">
<path d="M0.150001 0.175997H52.468C74.284 0.175997 90.7133 6.37066 101.756 18.76C112.799 31.0147 118.32 48.7907 118.32 72.088C118.32 94.9813 112.731 112.69 101.554 125.214C90.5113 137.738 74.2167 144 52.67 144H0.150001V0.175997ZM24.592 123.194H50.246C65.4633 123.194 76.506 119.154 83.374 111.074C90.242 102.859 93.676 89.864 93.676 72.088C93.676 54.0427 90.1073 40.98 82.97 32.9C75.9673 24.6853 64.5207 20.578 48.63 20.578H24.592V123.194Z" fill="black"/>
</svg>
