<svg width="133" height="151" viewBox="0 0 133 151" fill="none" xmlns="http://www.w3.org/2000/svg">
<path d="M125.734 69.634L125.532 70.846L132.198 69.634V147H115.634L110.988 129.224C101.831 143.229 87.4213 150.232 67.76 150.232C48.368 150.232 32.41 143.364 19.886 129.628C7.22733 116.161 0.898 97.914 0.898 74.886C0.898 52.1273 7.16 33.9473 19.684 20.346C31.9387 6.87932 48.4353 0.145988 69.174 0.145988C86.142 0.145988 100.013 4.25332 110.786 12.468C121.559 20.6827 128.091 32.062 130.38 46.606L106.544 48.222C104.928 39.6033 100.888 33.0047 94.424 28.426C88.0947 23.7127 80.082 21.356 70.386 21.356C56.246 21.356 45.2033 26.1367 37.258 35.698C29.4473 45.2593 25.542 58.3893 25.542 75.088C25.542 91.652 29.4473 104.849 37.258 114.68C45.2033 124.645 55.9767 129.628 69.578 129.628C80.486 129.628 89.5087 126.396 96.646 119.932C103.918 113.468 108.429 104.445 110.18 92.864V90.44H71.194V69.634H125.734Z" fill="black"/>
</svg>
