<svg width="138" height="152" viewBox="0 0 138 152" fill="none" xmlns="http://www.w3.org/2000/svg">
<path d="M68.77 151.04C48.974 151.04 32.7467 143.97 20.088 129.83C7.29467 115.825 0.898 97.51 0.898 74.886C0.898 52.666 7.29467 34.6207 20.088 20.75C32.8813 7.01399 49.1087 0.145988 68.77 0.145988C88.7007 0.145988 105.13 7.01399 118.058 20.75C130.851 34.7553 137.248 52.8007 137.248 74.886C137.248 97.51 130.851 115.825 118.058 129.83C105.13 143.97 88.7007 151.04 68.77 151.04ZM37.46 114.68C45.4053 124.645 55.9093 129.628 68.972 129.628C82.0347 129.628 92.606 124.645 100.686 114.68C108.631 104.715 112.604 91.45 112.604 74.886C112.604 58.9953 108.631 46.0673 100.686 36.102C92.606 26.406 82.0347 21.558 68.972 21.558C55.7747 21.558 45.2707 26.406 37.46 36.102C29.5147 46.0673 25.542 58.9953 25.542 74.886C25.542 91.45 29.5147 104.715 37.46 114.68Z" fill="black"/>
</svg>
