<svg width="113" height="144" viewBox="0 0 113 144" fill="none" xmlns="http://www.w3.org/2000/svg">
<path d="M106.806 98.348L112.462 144H87.414L83.576 106.428C82.9027 98.752 80.748 93.298 77.112 90.066C73.476 86.834 67.6853 85.218 59.74 85.218H24.592V144H0.150001V0.175997H67.012C81.4213 0.175997 92.464 3.67733 100.14 10.68C107.816 17.6827 111.654 27.1093 111.654 38.96C111.654 48.1173 109.365 55.7933 104.786 61.988C100.207 68.048 93.676 72.2227 85.192 74.512C97.9853 77.2053 105.19 85.1507 106.806 98.348ZM24.592 64.816H59.538C68.5607 64.816 75.4287 62.796 80.142 58.756C84.99 54.716 87.414 49.1273 87.414 41.99C87.414 35.3913 85.3267 30.274 81.152 26.638C77.112 22.8673 71.1193 20.982 63.174 20.982H24.592V64.816Z" fill="black"/>
</svg>
