<svg width="117" height="152" viewBox="0 0 117 152" fill="none" xmlns="http://www.w3.org/2000/svg">
<path d="M59.882 151.838C41.5673 151.838 27.2253 147.596 16.856 139.112C6.62133 130.628 1.03267 118.373 0.0900004 102.348H23.926C25.4073 122.009 37.46 131.84 60.084 131.84C70.184 131.84 77.9273 129.955 83.314 126.184C88.8353 122.279 91.596 116.825 91.596 109.822C91.596 104.166 89.576 99.6547 85.536 96.288C81.496 92.9213 74.83 90.228 65.538 88.208L42.106 82.754C16.9233 76.9633 4.332 64.0353 4.332 43.97C4.332 31.7153 8.91067 21.4133 18.068 13.064C27.0907 4.98399 39.9513 0.943991 56.65 0.943991C73.214 0.943991 86.4787 4.98399 96.444 13.064C106.409 21.144 111.931 32.254 113.008 46.394H89.374C88.4313 38.314 85.0647 32.052 79.274 27.608C73.618 23.164 66.0093 20.942 56.448 20.942C47.6947 20.942 40.8267 22.8273 35.844 26.598C30.8613 30.234 28.37 35.2167 28.37 41.546C28.37 51.1073 35.3053 57.3693 49.176 60.332L76.244 66.594C103.043 72.7887 116.442 86.5247 116.442 107.802C116.442 121.269 111.459 131.975 101.494 139.92C91.6633 147.865 77.7927 151.838 59.882 151.838Z" fill="black"/>
</svg>
